<?xml version="1.0" standalone="no"?>
<!DOCTYPE svg PUBLIC "-//W3C//DTD SVG 20010904//EN"
 "http://www.w3.org/TR/2001/REC-SVG-20010904/DTD/svg10.dtd">
<svg version="1.0" xmlns="http://www.w3.org/2000/svg"
 width="700.000000pt" height="700.000000pt" viewBox="0 0 700.000000 700.000000"
 preserveAspectRatio="xMidYMid meet">
<metadata>
Created by potrace 1.14, written by Peter Selinger 2001-2017
</metadata>
<g transform="translate(0.000000,700.000000) scale(0.100000,-0.100000)"
fill="#000000" stroke="none">
<path d="M3348 6895 c-1 -1 -37 -5 -78 -9 -262 -21 -563 -107 -821 -236 -252
-126 -416 -245 -619 -449 -230 -231 -372 -442 -520 -776 -39 -87 -119 -363
-135 -465 -29 -188 -36 -276 -36 -420 1 -300 47 -560 148 -829 220 -590 680
-1078 1258 -1334 158 -70 381 -140 515 -161 19 -3 44 -7 55 -9 196 -38 534
-41 736 -7 196 33 405 90 539 147 153 65 418 212 493 273 7 6 50 40 97 77 189
148 405 394 542 618 47 77 158 295 158 311 0 3 9 24 19 48 43 93 119 377 136
506 3 25 8 61 10 80 16 105 21 348 10 470 -35 411 -181 817 -413 1150 -159
227 -353 423 -582 587 -47 34 -103 71 -125 84 -152 86 -204 112 -296 152 -180
78 -355 130 -539 160 -52 9 -111 19 -130 22 -37 6 -416 16 -422 10z"/>
<path d="M504 2239 c-26 -13 -51 -57 -49 -85 1 -11 14 -58 28 -105 27 -89 115
-381 125 -413 4 -14 1 -17 -14 -13 -20 6 -53 12 -114 23 -19 3 -60 10 -90 16
-101 18 -153 2 -167 -51 -4 -14 -7 -209 -7 -433 0 -318 -3 -408 -13 -408 -30
0 -82 -36 -101 -69 -37 -67 -12 -147 57 -182 29 -15 147 -17 1344 -18 722 0
1328 -1 1349 -1 31 0 37 -4 47 -31 18 -51 99 -166 149 -210 146 -128 355 -180
576 -142 178 31 346 151 432 310 l39 73 70 0 c39 1 651 1 1361 1 1242 1 1293
2 1322 19 90 55 90 167 0 231 -18 13 -34 23 -35 21 -2 -1 -9 -2 -16 -2 -11 0
-14 77 -14 410 -1 289 -4 419 -13 439 -21 51 -68 61 -190 37 -51 -10 -205 -36
-214 -36 -4 0 -6 8 -3 18 3 9 21 71 40 137 19 66 51 174 71 240 44 148 45 168
5 207 l-30 31 -162 -7 c-90 -4 -174 -8 -187 -10 -14 -3 -68 -7 -121 -11 -52
-3 -106 -7 -120 -10 -13 -2 -56 -6 -94 -9 -39 -4 -81 -8 -95 -10 -14 -3 -68
-10 -120 -16 -52 -7 -104 -14 -115 -16 -11 -2 -40 -7 -65 -10 -25 -3 -52 -7
-60 -9 -8 -3 -33 -7 -55 -10 -22 -4 -47 -8 -55 -10 -8 -2 -31 -7 -50 -10 -115
-18 -445 -101 -597 -150 -495 -159 -847 -395 -995 -665 -36 -66 -70 -161 -63
-179 3 -11 0 -10 -10 3 -8 11 -15 26 -15 34 0 26 -70 164 -114 226 -222 311
-694 549 -1392 702 -66 14 -128 27 -139 29 -48 8 -202 35 -220 39 -11 2 -45 7
-75 11 -30 4 -63 9 -73 11 -10 2 -45 6 -78 9 -33 4 -69 8 -79 10 -10 2 -50 7
-87 10 -37 4 -79 8 -93 10 -14 2 -63 6 -110 10 -47 3 -105 8 -130 10 -146 12
-357 14 -376 4z"/>
</g>
</svg>
