<?xml version="1.0" encoding="UTF-8"?><svg xmlns="http://www.w3.org/2000/svg" viewBox="0 0 346 346"><g isolation="isolate"><circle cx="173" cy="173" r="173" fill="#deddff"/><circle cx="173" cy="173" r="153" fill="#2ca491"/><path d="m277.93,61.65c-6.27,8.09-14.31,16.8-24.51,25-30.1,24.22-62.97,31.12-98.64,38.21-43.1,8.57-49.33,2.75-77.3101,11.56-23.7,7.45-42.75,19.02-57.34,30.32C23.41,85.14,90.6,20,173,20c.86,0,1.72.01,2.58.02,39.6.66,75.54,16.35,102.35,41.63Z" fill="#2ca491"/><path d="m267.23,293.55c-25.97,20.33-58.69,32.45-94.23,32.45-11.78,0-23.24-1.33-34.25-3.85,5.41-2.75,11.56-5.58,18.4-8.3,7.05-2.79,25.99-9.86,73.7599-16.29,10.21-1.37,22.41-2.8,36.32-4.01Z" fill="#088395"/><path d="m282.06,280.31c-1.31,1.32-2.63,2.62-3.98,3.9-3.46,3.28-7.09,6.4-10.85,9.34-13.91,1.21-26.11,2.64-36.32,4.01-47.77,6.43-66.71,13.5-73.7599,16.29-6.84,2.72-12.9901,5.55-18.4,8.3-2.72-.62-5.41-1.31-8.08-2.08-3.12-.9-6.2-1.89-9.23-2.97,10.82-5.74,25.72-12.58,44.01-18.06,24.93-7.47,42.43-8.27,63.94-10.33.01,0,.01-.0099.02,0,9.08-.88,18.8701-1.97,30.2401-3.89,5.67-.95,12.19-2.19,19.45-3.82.97-.22,1.96-.45,2.96-.69Z" fill="#deddff"/><path d="m315,230.07c-7.6,18.91-18.88,35.95-32.94,50.24-1,.24-1.99.47-2.96.69-7.2599,1.63-13.78,2.87-19.45,3.82-11.37,1.92-21.16,3.0099-30.2401,3.89-.0099-.0099-.0099,0-.02,0-21.51,2.06-39.01,2.86-63.94,10.33-18.29,5.48-33.19,12.32-44.01,18.06-12.53-4.49-24.3-10.56-35.08-17.98,8.92-7.43,20.72-15.63,35.54-22.29,15.71-7.0699,27.09-8.9399,73.7599-16,64.6201-9.78,68.6801-10.11,79.09-13.33,11.53-3.57,25.22-8.95,40.25-17.43Z" fill="#228e9c"/><path d="m324.75,192.67c-1.68,13.05-5,25.59-9.75,37.4-15.03,8.48-28.72,13.86-40.25,17.43-10.41,3.22-14.47,3.55-79.09,13.33-46.67,7.0601-58.05,8.9301-73.7599,16-14.82,6.66-26.62,14.86-35.54,22.29-5.27-3.62-10.3-7.57-15.06-11.81,5.52-7.95,12.99-16.46,23.05-23.81,17.75-12.97,34.56-15.75,78.21-22.22,79.24-11.75,80.2-10.92,90.64-14.22,16.28-5.14,37.88-14.73,61.55-34.39Z" fill="#e5ac00"/><path d="m326,173c0,6.66-.43,13.23-1.25,19.67-23.67,19.66-45.27,29.25-61.55,34.39-10.44,3.3-11.4,2.47-90.64,14.22-43.65,6.47-60.46,9.25-78.21,22.22-10.06,7.35-17.53,15.86-23.05,23.81-14.88-13.25-27.17-29.37-35.98-47.49,8.29-11.7,20.13-24.75,36.82-34.98,22.9-14.04,37.85-12.28,91.53-21.32,55.5-9.35,83.75-14.35,108.42-30.22,19.02-12.24,32.3199-27.52,41.44-40.9,8.03,18.59,12.47,39.07,12.47,60.6Z" fill="#42a3ab"/><path d="m313.53,112.4c-9.1201,13.38-22.42,28.66-41.44,40.9-24.67,15.87-52.92,20.87-108.42,30.22-53.68,9.04-68.63,7.28-91.53,21.32-16.69,10.23-28.53,23.28-36.82,34.98-9.81-20.19-15.32-42.86-15.32-66.82,0-2.1.04-4.19.13-6.26,14.59-11.3,33.64-22.87,57.34-30.32,27.98-8.81,34.21-2.99,77.3101-11.56,35.67-7.09,68.54-13.99,98.64-38.21,10.2-8.2,18.24-16.91,24.51-25,15.08,14.21,27.27,31.46,35.6,50.75Z" fill="#4cb3ac"/><path d="m184.5233,32.1615c12.8157-4.7069,26.5499.6446,40.092,5.9212,3.1971,1.2457,28.821,11.23,27.8023,18.0924-.8714,5.8704-20.764,6.2544-34.742,6.5241-19.5107.3766-44.7159.8631-49.6252-8.2033-3.7899-6.9992,5.3057-18.233,16.4729-22.3345Z" fill="#deddff"/><path d="m326,173c0,6.66-.43,13.23-1.25,19.67-1.68,13.05-5,25.59-9.75,37.4-7.6,18.91-18.88,35.95-32.94,50.24-1.31,1.32-2.63,2.62-3.98,3.9-3.46,3.28-7.09,6.4-10.85,9.34-23.66,18.52-52.92,30.23-84.81,32.16,74.17-27.55,123.14-95.88,120.1-159.75-2.9-61.09-53.61-122.77-126.94-145.94,39.6.66,75.54,16.35,102.35,41.63,15.08,14.21,27.27,31.46,35.6,50.75,8.03,18.59,12.47,39.07,12.47,60.6Z" fill="#088395" mix-blend-mode="multiply" opacity=".1"/></g></svg>