<?xml version="1.0" encoding="UTF-8"?><svg xmlns="http://www.w3.org/2000/svg" viewBox="0 0 500 497.5"><g isolation="isolate"><path d="m27.514,349.2888l11.2342,37.1598,210.0815,37.4189c-17.5865-72.3242-174.1014-82.0561-214.306-83.3636-4.6978-.1528-8.2058,4.2507-7.0096,8.7849Z" fill="#deddff"/><path d="m248.8297,423.8675l210.0815-37.056,11.2342-37.5227c1.1962-4.5343-2.3118-8.9377-7.0096-8.7849-40.2047,1.3076-196.7195,11.0395-214.306,83.3636Z" fill="#deddff"/><g mix-blend-mode="multiply" opacity=".1"><path d="m38.7482,386.4485l210.0815,37.419c-17.5865-72.3241-174.1014-82.0561-214.306-83.3636,0,0,101.4294,7.9155,170.2566,47.0299,7.1308,4.0524,2.7627,14.9382-5.1841,12.8936-31.0825-7.9974-81.0759-14.7746-160.8479-13.9789Z" fill="#088395"/><path d="m458.9112,386.4485l-210.0815,37.419c17.5865-72.3241,174.1014-82.0561,214.306-83.3636,0,0-101.4294,7.9155-170.2566,47.0299-7.1308,4.0524-2.7627,14.9382,5.1841,12.8936,31.0825-7.9974,81.0759-14.7746,160.8479-13.9789Z" fill="#088395"/></g><path d="m250.785,487.6926c-32.0969,0-38.2931-29.174-38.2931-29.174l-202.6606-.1648v-68.6891c0-4.3615,3.9526-7.6627,8.2569-6.896l230.7416,41.0988,233.094-41.1152c4.3008-.7586,8.2453,2.5413,8.2453,6.8981v68.7033l-204.0651.1648s-6.1274,29.174-35.3189,29.174" fill="#deddff"/><path d="m490.169,434.7007h-204.0652c-4.769,0-8.8343,3.3329-9.6655,8.0162-.4238,2.1658-4.7992,21.1589-27.6085,21.1589-22.5508,0-26.2712-18.7249-26.6079-20.7758-.7009-4.8215-4.8451-8.3992-9.73-8.3992H9.8312v19.6142h195.1718c.5207,1.3726,1.1347,2.7801,1.8369,4.1991l5.652.0046s1.9941,9.3607,9.553,17.4778c6.7526,4.4757,15.5364,7.4935,26.7849,7.4935,13.0207,0,22.852-4.0604,30.0849-9.7428,5.5553-7.501,7.1893-15.2285,7.1893-15.2285l5.3366-.0043c.7411-1.4203,1.3928-2.8284,1.9491-4.1994h196.7794v-19.6142Z" fill="#088395" mix-blend-mode="multiply" opacity=".1"/><path d="m490.1685,448.7108h-204.0648c-4.769,0-8.8343,3.3329-9.6655,8.0162-.4238,2.1658-4.7992,21.1589-27.6085,21.1589-22.5508,0-26.2712-18.7249-26.6079-20.7758-.7009-4.8215-4.8451-8.3992-9.73-8.3992H9.8315c-5.4301,0-9.8315,4.3905-9.8315,9.8071s4.4014,9.8071,9.8315,9.8071h195.1715c4.9452,13.0374,17.8003,29.175,43.8267,29.175,26.012,0,39.2971-16.2033,44.5598-29.175h196.779c5.4301,0,9.8315-4.3905,9.8315-9.8071s-4.4014-9.8071-9.8315-9.8071Z" fill="#e5193c"/><path d="m300.9084,463.298c-6.7245,0-12.4569,3.3329-13.6289,8.0162-.5976,2.1658-6.767,21.1589-38.9296,21.1589-31.798,0-37.044-18.7249-37.5188-20.7758-.9883-4.8215-6.8319-8.3992-13.7199-8.3992H1.2507c1.6819,2.9978,4.8917,5.027,8.5808,5.027h195.1715c4.9452,13.0374,17.8003,29.175,43.8267,29.175,26.012,0,39.2971-16.2033,44.5598-29.175h196.779c3.689,0,6.8989-2.0292,8.5808-5.027h-197.8409Z" fill="#088395" mix-blend-mode="multiply" opacity=".1"/><circle cx="250" cy="173" r="173" fill="#deddff"/><circle cx="250" cy="173" r="153" fill="#2ca491"/><path d="m354.93,61.65c-6.27,8.09-14.31,16.8-24.51,25-30.1,24.22-62.97,31.12-98.64,38.21-43.1,8.57-49.33,2.75-77.3101,11.56-23.7,7.45-42.75,19.02-57.34,30.32,3.28-81.6,70.47-146.74,152.87-146.74.86,0,1.72.01,2.58.02,39.6.66,75.54,16.35,102.35,41.63Z" fill="#2ca491"/><path d="m344.23,293.55c-25.97,20.33-58.69,32.45-94.23,32.45-11.78,0-23.24-1.33-34.25-3.85,5.41-2.75,11.56-5.58,18.4-8.3,7.05-2.79,25.99-9.86,73.7599-16.29,10.21-1.37,22.41-2.8,36.32-4.01Z" fill="#088395"/><path d="m359.06,280.31c-1.31,1.32-2.63,2.62-3.98,3.9-3.46,3.28-7.09,6.4-10.85,9.34-13.91,1.21-26.11,2.64-36.32,4.01-47.77,6.43-66.71,13.5-73.7599,16.29-6.84,2.72-12.9901,5.55-18.4,8.3-2.72-.62-5.41-1.31-8.08-2.08-3.12-.9-6.2-1.89-9.23-2.97,10.82-5.74,25.72-12.58,44.01-18.06,24.93-7.47,42.43-8.27,63.94-10.33.01,0,.01-.0099.02,0,9.08-.88,18.8701-1.97,30.2401-3.89,5.67-.95,12.19-2.19,19.45-3.82.97-.22,1.96-.45,2.96-.69Z" fill="#deddff"/><path d="m392,230.07c-7.6,18.91-18.88,35.95-32.94,50.24-1,.24-1.99.47-2.96.69-7.2599,1.63-13.78,2.87-19.45,3.82-11.37,1.92-21.16,3.0099-30.2401,3.89-.0099-.0099-.0099,0-.02,0-21.51,2.06-39.01,2.86-63.94,10.33-18.29,5.48-33.19,12.32-44.01,18.06-12.53-4.49-24.3-10.56-35.08-17.98,8.92-7.43,20.72-15.63,35.54-22.29,15.71-7.0699,27.09-8.9399,73.7599-16,64.6201-9.78,68.6801-10.11,79.09-13.33,11.53-3.57,25.22-8.95,40.25-17.43Z" fill="#228e9c"/><path d="m401.75,192.67c-1.68,13.05-5,25.59-9.75,37.4-15.03,8.48-28.72,13.86-40.25,17.43-10.41,3.22-14.47,3.55-79.09,13.33-46.67,7.0601-58.05,8.9301-73.7599,16-14.82,6.66-26.62,14.86-35.54,22.29-5.27-3.62-10.3-7.57-15.06-11.81,5.52-7.95,12.99-16.46,23.05-23.81,17.75-12.97,34.56-15.75,78.21-22.22,79.24-11.75,80.2-10.92,90.64-14.22,16.28-5.14,37.88-14.73,61.55-34.39Z" fill="#e5ac00"/><path d="m403,173c0,6.66-.43,13.23-1.25,19.67-23.67,19.66-45.27,29.25-61.55,34.39-10.44,3.3-11.4,2.47-90.64,14.22-43.65,6.47-60.46,9.25-78.21,22.22-10.06,7.35-17.53,15.86-23.05,23.81-14.88-13.25-27.17-29.37-35.98-47.49,8.29-11.7,20.13-24.75,36.82-34.98,22.9-14.04,37.85-12.28,91.53-21.32,55.5-9.35,83.75-14.35,108.42-30.22,19.02-12.24,32.3199-27.52,41.44-40.9,8.03,18.59,12.47,39.07,12.47,60.6Z" fill="#42a3ab"/><path d="m390.53,112.4c-9.1201,13.38-22.42,28.66-41.44,40.9-24.67,15.87-52.92,20.87-108.42,30.22-53.68,9.04-68.63,7.28-91.53,21.32-16.69,10.23-28.53,23.28-36.82,34.98-9.81-20.19-15.32-42.86-15.32-66.82,0-2.1.04-4.19.13-6.26,14.59-11.3,33.64-22.87,57.34-30.32,27.98-8.81,34.21-2.99,77.3101-11.56,35.67-7.09,68.54-13.99,98.64-38.21,10.2-8.2,18.24-16.91,24.51-25,15.08,14.21,27.27,31.46,35.6,50.75Z" fill="#4cb3ac"/><path d="m261.5233,32.1615c12.8157-4.7069,26.5499.6446,40.092,5.9212,3.1971,1.2457,28.821,11.23,27.8023,18.0924-.8714,5.8704-20.764,6.2544-34.742,6.5241-19.5107.3766-44.7159.8631-49.6252-8.2033-3.7899-6.9992,5.3057-18.233,16.4729-22.3345Z" fill="#deddff"/><path d="m403,173c0,6.66-.43,13.23-1.25,19.67-1.68,13.05-5,25.59-9.75,37.4-7.6,18.91-18.88,35.95-32.94,50.24-1.31,1.32-2.63,2.62-3.98,3.9-3.46,3.28-7.09,6.4-10.85,9.34-23.66,18.52-52.92,30.23-84.81,32.16,74.17-27.55,123.14-95.88,120.1-159.75-2.9-61.09-53.61-122.77-126.94-145.94,39.6.66,75.54,16.35,102.35,41.63,15.08,14.21,27.27,31.46,35.6,50.75,8.03,18.59,12.47,39.07,12.47,60.6Z" fill="#088395" mix-blend-mode="multiply" opacity=".1"/></g></svg>