<?xml version="1.0" encoding="utf-8"?>
<svg version="1.1" id="Warstwa_1" xmlns="http://www.w3.org/2000/svg" xmlns:xlink="http://www.w3.org/1999/xlink" x="0px" y="0px"
	 viewBox="0 0 512 512" style="enable-background:new 0 0 512 512;" xml:space="preserve">
<style type="text/css">
	.st0{fill:#DEDDFF;}
	.st1{opacity:0.1;}
	.st2{fill:#088395;}
	.st3{opacity:0.1;fill:#088395;}
	.st4{fill:#E5193C;}
	.st5{fill:#2CA491;}
	.st6{clip-path:url(#SVGID_00000080177458570817555240000000019950791921450905_);fill:#088395;}
	.st7{clip-path:url(#SVGID_00000080177458570817555240000000019950791921450905_);fill:#DEDDFF;}
	.st8{clip-path:url(#SVGID_00000080177458570817555240000000019950791921450905_);fill:#228E9C;}
	.st9{clip-path:url(#SVGID_00000080177458570817555240000000019950791921450905_);fill:#E5AC00;}
	.st10{clip-path:url(#SVGID_00000080177458570817555240000000019950791921450905_);fill:#42A3AB;}
	.st11{clip-path:url(#SVGID_00000080177458570817555240000000019950791921450905_);fill:#4CB3AC;}
	.st12{opacity:0.1;clip-path:url(#SVGID_00000080177458570817555240000000019950791921450905_);fill:#088395;}
</style>
<g>
	<g id="ksiazka_00000163774920229176642610000017652401043403178673_">
		<g>
			<g>
				<path class="st0" d="M33.5,356.1l11.2,37.2l210.1,37.5c-17.6-72.5-174.1-82.2-214.3-83.5C35.8,347.1,32.3,351.6,33.5,356.1z"/>
				<path class="st0" d="M254.8,430.8l210.1-37.1l11.2-37.6c1.2-4.5-2.3-9-7-8.8C428.9,348.6,272.4,358.4,254.8,430.8z"/>
			</g>
			<g class="st1">
				<path class="st2" d="M44.7,393.3l210.1,37.5c-17.6-72.5-174.1-82.2-214.3-83.5c0,0,101.4,7.9,170.3,47.1
					c7.1,4.1,2.8,15-5.2,12.9C174.5,399.3,124.5,392.5,44.7,393.3z"/>
				<path class="st2" d="M464.9,393.3l-210.1,37.5c17.6-72.5,174.1-82.2,214.3-83.5c0,0-101.4,7.9-170.3,47.1
					c-7.1,4.1-2.8,15,5.2,12.9C335.1,399.3,385.1,392.5,464.9,393.3z"/>
			</g>
		</g>
		<g>
			<g>
				<path class="st0" d="M256.8,494.8c-32.1,0-38.3-29.2-38.3-29.2l-202.7-0.2v-68.8c0-4.4,4-7.7,8.3-6.9l230.7,41.2l233.1-41.2
					c4.3-0.8,8.2,2.5,8.2,6.9v68.8l-204.1,0.2C292.1,465.5,286,494.8,256.8,494.8"/>
			</g>
			<path class="st3" d="M496.2,441.7C496.2,441.7,496.2,441.7,496.2,441.7H292.1c-4.8,0-8.8,3.3-9.7,8c-0.4,2.2-4.8,21.2-27.6,21.2
				c-22.6,0-26.3-18.8-26.6-20.8c-0.7-4.8-4.8-8.4-9.7-8.4H15.8c0,0,0,0,0,0v19.7c0,0,0,0,0,0H211c0.5,1.4,1.1,2.8,1.8,4.2l5.7,0
				c0,0,2,9.4,9.6,17.5c6.8,4.5,15.5,7.5,26.8,7.5c13,0,22.9-4.1,30.1-9.8c5.6-7.5,7.2-15.3,7.2-15.3l5.3,0c0.7-1.4,1.4-2.8,1.9-4.2
				h196.8c0,0,0,0,0,0V441.7z"/>
		</g>
		<path id="podkladka_00000005982065619209915280000017401675241633208491_" class="st4" d="M496.2,455.7H292.1
			c-4.8,0-8.8,3.3-9.7,8c-0.4,2.2-4.8,21.2-27.6,21.2c-22.6,0-26.3-18.8-26.6-20.8c-0.7-4.8-4.8-8.4-9.7-8.4H15.8
			c-5.4,0-9.8,4.4-9.8,9.8c0,5.4,4.4,9.8,9.8,9.8H211c4.9,13.1,17.8,29.2,43.8,29.2c26,0,39.3-16.2,44.6-29.2h196.8
			c5.4,0,9.8-4.4,9.8-9.8C506,460.1,501.6,455.7,496.2,455.7z"/>
		<path class="st3" d="M306.9,470.3c-6.7,0-12.5,3.3-13.6,8c-0.6,2.2-6.8,21.2-38.9,21.2c-31.8,0-37-18.8-37.5-20.8
			c-1-4.8-6.8-8.4-13.7-8.4H7.3c1.7,3,4.9,5,8.6,5H211c4.9,13.1,17.8,29.2,43.8,29.2c26,0,39.3-16.2,44.6-29.2h196.8
			c3.7,0,6.9-2,8.6-5H306.9z"/>
	</g>
	<circle class="st0" cx="256" cy="180.2" r="172.8"/>
	<g id="sfera_00000002359337571546269430000011527774498979184813_">
		<circle class="st5" cx="256" cy="180.2" r="153.1"/>
		<g>
			<defs>
				<circle id="SVGID_1_" cx="256" cy="180.2" r="153.1"/>
			</defs>
			<clipPath id="SVGID_00000092421750828273983280000013703894995505226398_">
				<use xlink:href="#SVGID_1_"  style="overflow:visible;"/>
			</clipPath>
			<path style="clip-path:url(#SVGID_00000092421750828273983280000013703894995505226398_);fill:#088395;" d="M296.3,335.3
				c41.7-13.3,71.1-37.9,65.7-55.1l-151.1,48C216.3,345.4,254.6,348.5,296.3,335.3z"/>
			<path style="clip-path:url(#SVGID_00000092421750828273983280000013703894995505226398_);fill:#DEDDFF;" d="M377.7,298.9
				c-25.6,1.3-47.3,3.7-63.7,5.9c-47.8,6.4-66.8,13.5-73.8,16.3c-14.6,5.8-26,12.1-33.8,16.9l-9.5-9.5c10.9-6.3,28.6-15.3,51.6-22.2
				c35.5-10.6,55.9-7.8,94.3-14.2c18-3,44.4-8.9,76.1-21.3L377.7,298.9z"/>
			<path style="clip-path:url(#SVGID_00000092421750828273983280000013703894995505226398_);fill:#228E9C;" d="M418.8,270.7
				c-31.7,12.5-58.1,18.3-76.1,21.3c-38.3,6.5-58.8,3.6-94.3,14.2c-23,6.9-40.7,15.9-51.6,22.2l-37.3-13.3
				c9.3-9,24.3-21.6,45.3-31.1c15.7-7.1,27.1-8.9,73.8-16c64.7-9.8,68.7-10.1,79.1-13.3c18.2-5.6,41.8-15.8,67.6-35.6L418.8,270.7z"
				/>
			<path style="clip-path:url(#SVGID_00000092421750828273983280000013703894995505226398_);fill:#E5AC00;" d="M425.4,219.1
				c-25.7,19.8-49.4,29.9-67.6,35.6c-10.4,3.2-14.5,3.6-79.1,13.3c-46.7,7.1-58.1,8.9-73.8,16c-21.1,9.5-36.1,22.1-45.3,31.1
				l-14.2-5.3c5.3-10.8,14.9-26.6,32-39.1c17.8-13,34.6-15.8,78.2-22.2c79.3-11.8,80.2-10.9,90.7-14.2c20.8-6.6,50.4-20.4,81.8-53.4
				L425.4,219.1z"/>
			<path style="clip-path:url(#SVGID_00000092421750828273983280000013703894995505226398_);fill:#42A3AB;" d="M428.1,180.9
				c-31.4,32.9-61,46.8-81.8,53.4c-10.4,3.3-11.4,2.5-90.7,14.2c-43.7,6.5-60.5,9.3-78.2,22.2c-17.1,12.5-26.7,28.4-32,39.1
				l-33.8-52.5c8.2-13.7,21.7-32,43.6-45.3c22.9-14,37.9-12.3,91.6-21.3c55.5-9.4,83.8-14.4,108.5-30.2c26.8-17.2,42.3-40.5,50.7-56
				L428.1,180.9z"/>
			<path style="clip-path:url(#SVGID_00000092421750828273983280000013703894995505226398_);fill:#4CB3AC;" d="M372.9,51.1
				c-6.7,11.4-18.1,27.9-36.5,42.7c-30.1,24.2-63,31.1-98.7,38.2c-43.1,8.6-49.4,2.7-77.4,11.6c-33.9,10.7-58.4,29.8-73.8,44.5
				l24.9,69.4c8.2-13.7,21.7-32,43.6-45.3c22.9-14,37.9-12.3,91.6-21.3c55.5-9.4,83.8-14.4,108.5-30.2c26.8-17.2,42.3-40.5,50.7-56
				L372.9,51.1z"/>
			<path style="clip-path:url(#SVGID_00000092421750828273983280000013703894995505226398_);fill:#DEDDFF;" d="M267.5,39.2
				c12.8-4.7,26.6,0.6,40.1,5.9c3.2,1.2,28.8,11.2,27.8,18.1c-0.9,5.9-20.8,6.3-34.8,6.5c-19.5,0.4-44.7,0.9-49.7-8.2
				C247.3,54.6,256.4,43.3,267.5,39.2z"/>
			<path style="opacity:0.1;clip-path:url(#SVGID_00000092421750828273983280000013703894995505226398_);fill:#088395;" d="
				M168.2,343.8c125.1,15.8,221.6-81.8,217.4-170.7c-3.8-79.7-88.9-160.4-199.4-155.4c0,0,234.5-40.7,232.6,158.1
				S202.9,360.5,168.2,343.8z"/>
		</g>
	</g>
</g>
</svg>
