<?xml version="1.0" encoding="UTF-8"?><svg xmlns="http://www.w3.org/2000/svg" viewBox="0 0 500 157"><g isolation="isolate"><path d="m27.514,8.7888l11.2342,37.1598,210.0815,37.4189C231.2432,11.0433,74.7283,1.3114,34.5237.0039c-4.6978-.1528-8.2058,4.2507-7.0096,8.7849Z" fill="#deddff"/><path d="m248.8297,83.3675l210.0815-37.056,11.2342-37.5227c1.1962-4.5343-2.3118-8.9377-7.0096-8.7849-40.2047,1.3076-196.7195,11.0395-214.306,83.3636Z" fill="#deddff"/><g mix-blend-mode="multiply" opacity=".1"><path d="m38.7482,45.9485l210.0815,37.419C231.2432,11.0434,74.7283,1.3113,34.5237.0039,34.5237.0039,135.953,7.9194,204.7802,47.0338c7.1308,4.0524,2.7627,14.9382-5.1841,12.8936-31.0825-7.9974-81.0759-14.7746-160.8479-13.9789Z" fill="#088395"/><path d="m458.9112,45.9485l-210.0815,37.419C266.4162,11.0434,422.9311,1.3113,463.1357.0039c0,0-101.4294,7.9155-170.2566,47.0299-7.1308,4.0524-2.7627,14.9382,5.1841,12.8936,31.0825-7.9974,81.0759-14.7746,160.8479-13.9789Z" fill="#088395"/></g><path d="m250.785,147.1926c-32.0969,0-38.2931-29.174-38.2931-29.174l-202.6606-.1648V49.1646c0-4.3615,3.9526-7.6627,8.2569-6.896l230.7416,41.0988,233.094-41.1152c4.3008-.7586,8.2453,2.5413,8.2453,6.8981v68.7033l-204.0651.1648s-6.1274,29.174-35.3189,29.174" fill="#deddff"/><path d="m490.169,94.2007h-204.0652c-4.769,0-8.8343,3.3329-9.6655,8.0162-.4238,2.1658-4.7992,21.1589-27.6085,21.1589-22.5508,0-26.2712-18.7249-26.6079-20.7758-.7009-4.8215-4.8451-8.3992-9.73-8.3992H9.8312v19.6142h195.1718c.5207,1.3726,1.1347,2.7801,1.8369,4.1991l5.652.0046s1.9941,9.3607,9.553,17.4778c6.7526,4.4757,15.5364,7.4935,26.7849,7.4935,13.0207,0,22.852-4.0604,30.0849-9.7428,5.5553-7.501,7.1893-15.2285,7.1893-15.2285l5.3366-.0043c.7411-1.4203,1.3928-2.8284,1.9491-4.1994h196.7794v-19.6142Z" fill="#088395" mix-blend-mode="multiply" opacity=".1"/><path d="m490.1685,108.2108h-204.0648c-4.769,0-8.8343,3.3329-9.6655,8.0162-.4238,2.1658-4.7992,21.1589-27.6085,21.1589-22.5508,0-26.2712-18.7249-26.6079-20.7758-.7009-4.8215-4.8451-8.3992-9.73-8.3992H9.8315c-5.4301,0-9.8315,4.3905-9.8315,9.8071s4.4014,9.8071,9.8315,9.8071h195.1715c4.9452,13.0374,17.8003,29.175,43.8267,29.175,26.012,0,39.2971-16.2033,44.5598-29.175h196.779c5.4301,0,9.8315-4.3905,9.8315-9.8071s-4.4014-9.8071-9.8315-9.8071Z" fill="#e5193c"/><path d="m300.9084,122.798c-6.7245,0-12.4569,3.3329-13.6289,8.0162-.5976,2.1658-6.767,21.1589-38.9296,21.1589-31.798,0-37.044-18.7249-37.5188-20.7758-.9883-4.8215-6.8319-8.3992-13.7199-8.3992H1.2507c1.6819,2.9978,4.8917,5.027,8.5808,5.027h195.1715c4.9452,13.0374,17.8003,29.175,43.8267,29.175,26.012,0,39.2971-16.2033,44.5598-29.175h196.779c3.689,0,6.8989-2.0292,8.5808-5.027h-197.8409Z" fill="#088395" mix-blend-mode="multiply" opacity=".1"/></g></svg>