<?xml version="1.0" encoding="utf-8"?>
<!-- Generator: Adobe Illustrator 27.5.0, SVG Export Plug-In . SVG Version: 6.00 Build 0)  -->
<svg version="1.1" id="Warstwa_1" xmlns="http://www.w3.org/2000/svg" xmlns:xlink="http://www.w3.org/1999/xlink" x="0px" y="0px"
	 viewBox="0 0 500 157.3" style="enable-background:new 0 0 500 157.3;" xml:space="preserve">
<style type="text/css">
	.st0{fill:#DEDDFF;}
	.st1{opacity:0.1;}
	.st2{fill:#088395;}
	.st3{opacity:0.1;fill:#088395;}
	.st4{fill:#E5193C;}
</style>
<g>
	<g id="ksiazka_00000163774920229176642610000017652401043403178673_">
		<g>
			<g>
				<path class="st0" d="M27.5,8.8L38.7,46l210.1,37.5C231.2,11.1,74.7,1.3,34.5,0C29.8-0.1,26.3,4.3,27.5,8.8z"/>
				<path class="st0" d="M248.8,83.5l210.1-37.1l11.2-37.6c1.2-4.5-2.3-9-7-8.8C422.9,1.3,266.4,11.1,248.8,83.5z"/>
			</g>
			<g class="st1">
				<path class="st2" d="M38.7,46l210.1,37.5C231.2,11.1,74.7,1.3,34.5,0c0,0,101.4,7.9,170.3,47.1c7.1,4.1,2.8,15-5.2,12.9
					C168.5,52,118.5,45.2,38.7,46z"/>
				<path class="st2" d="M458.9,46L248.8,83.5C266.4,11.1,422.9,1.3,463.1,0c0,0-101.4,7.9-170.3,47.1c-7.1,4.1-2.8,15,5.2,12.9
					C329.1,52,379.1,45.2,458.9,46z"/>
			</g>
		</g>
		<g>
			<g>
				<path class="st0" d="M250.8,147.5c-32.1,0-38.3-29.2-38.3-29.2L9.8,118.1V49.3c0-4.4,4-7.7,8.3-6.9l230.7,41.2l233.1-41.2
					c4.3-0.8,8.2,2.5,8.2,6.9v68.8l-204.1,0.2C286.1,118.2,280,147.5,250.8,147.5"/>
			</g>
			<path class="st3" d="M490.2,94.4C490.2,94.4,490.2,94.4,490.2,94.4H286.1c-4.8,0-8.8,3.3-9.7,8c-0.4,2.2-4.8,21.2-27.6,21.2
				c-22.6,0-26.3-18.8-26.6-20.8c-0.7-4.8-4.8-8.4-9.7-8.4H9.8c0,0,0,0,0,0V114c0,0,0,0,0,0H205c0.5,1.4,1.1,2.8,1.8,4.2l5.7,0
				c0,0,2,9.4,9.6,17.5c6.8,4.5,15.5,7.5,26.8,7.5c13,0,22.9-4.1,30.1-9.8c5.6-7.5,7.2-15.3,7.2-15.3l5.3,0c0.7-1.4,1.4-2.8,1.9-4.2
				h196.8c0,0,0,0,0,0V94.4z"/>
		</g>
		<path id="podkladka_00000005982065619209915280000017401675241633208491_" class="st4" d="M490.2,108.4H286.1
			c-4.8,0-8.8,3.3-9.7,8c-0.4,2.2-4.8,21.2-27.6,21.2c-22.6,0-26.3-18.8-26.6-20.8c-0.7-4.8-4.8-8.4-9.7-8.4H9.8
			c-5.4,0-9.8,4.4-9.8,9.8c0,5.4,4.4,9.8,9.8,9.8H205c4.9,13.1,17.8,29.2,43.8,29.2c26,0,39.3-16.2,44.6-29.2h196.8
			c5.4,0,9.8-4.4,9.8-9.8C500,112.8,495.6,108.4,490.2,108.4z"/>
		<path class="st3" d="M300.9,123c-6.7,0-12.5,3.3-13.6,8c-0.6,2.2-6.8,21.2-38.9,21.2c-31.8,0-37-18.8-37.5-20.8
			c-1-4.8-6.8-8.4-13.7-8.4H1.3c1.7,3,4.9,5,8.6,5H205c4.9,13.1,17.8,29.2,43.8,29.2c26,0,39.3-16.2,44.6-29.2h196.8
			c3.7,0,6.9-2,8.6-5H300.9z"/>
	</g>
</g>
</svg>
