<?xml version="1.0" encoding="utf-8"?>
<!-- Generator: Adobe Illustrator 27.5.0, SVG Export Plug-In . SVG Version: 6.00 Build 0)  -->
<svg version="1.1" id="Warstwa_1" xmlns="http://www.w3.org/2000/svg" xmlns:xlink="http://www.w3.org/1999/xlink" x="0px" y="0px"
	 viewBox="0 0 345.5 345.5" style="enable-background:new 0 0 345.5 345.5;" xml:space="preserve">
<style type="text/css">
	.st0{fill:#DEDDFF;}
	.st1{fill:#2CA491;}
	.st2{clip-path:url(#SVGID_00000078019582113986497420000017884438282332687274_);fill:#088395;}
	.st3{clip-path:url(#SVGID_00000078019582113986497420000017884438282332687274_);fill:#DEDDFF;}
	.st4{clip-path:url(#SVGID_00000078019582113986497420000017884438282332687274_);fill:#228E9C;}
	.st5{clip-path:url(#SVGID_00000078019582113986497420000017884438282332687274_);fill:#E5AC00;}
	.st6{clip-path:url(#SVGID_00000078019582113986497420000017884438282332687274_);fill:#42A3AB;}
	.st7{clip-path:url(#SVGID_00000078019582113986497420000017884438282332687274_);fill:#4CB3AC;}
	.st8{opacity:0.1;clip-path:url(#SVGID_00000078019582113986497420000017884438282332687274_);fill:#088395;}
</style>
<g>
	<circle class="st0" cx="172.8" cy="172.8" r="172.8"/>
	<g id="sfera_00000002359337571546269430000011527774498979184813_">
		<circle class="st1" cx="172.8" cy="172.8" r="153.1"/>
		<g>
			<defs>
				<circle id="SVGID_1_" cx="172.8" cy="172.8" r="153.1"/>
			</defs>
			<clipPath id="SVGID_00000077296818201592149760000012056310204801799067_">
				<use xlink:href="#SVGID_1_"  style="overflow:visible;"/>
			</clipPath>
			<path style="clip-path:url(#SVGID_00000077296818201592149760000012056310204801799067_);fill:#088395;" d="M213,327.9
				c41.7-13.3,71.1-37.9,65.7-55.1l-151.1,48C133.1,337.9,171.3,341.1,213,327.9z"/>
			<path style="clip-path:url(#SVGID_00000077296818201592149760000012056310204801799067_);fill:#DEDDFF;" d="M294.4,291.5
				c-25.6,1.3-47.3,3.7-63.7,5.9c-47.8,6.4-66.8,13.5-73.8,16.3c-14.6,5.8-26,12.1-33.8,16.9l-9.5-9.5c10.9-6.3,28.6-15.3,51.6-22.2
				c35.5-10.6,55.9-7.8,94.3-14.2c18-3,44.4-8.9,76.1-21.3L294.4,291.5z"/>
			<path style="clip-path:url(#SVGID_00000077296818201592149760000012056310204801799067_);fill:#228E9C;" d="M335.5,263.3
				c-31.7,12.5-58.1,18.3-76.1,21.3c-38.3,6.5-58.8,3.6-94.3,14.2c-23,6.9-40.7,15.9-51.6,22.2l-37.3-13.3
				c9.3-9,24.3-21.6,45.3-31.1c15.7-7.1,27.1-8.9,73.8-16c64.7-9.8,68.7-10.1,79.1-13.3c18.2-5.6,41.8-15.8,67.6-35.6L335.5,263.3z"
				/>
			<path style="clip-path:url(#SVGID_00000077296818201592149760000012056310204801799067_);fill:#E5AC00;" d="M342.1,211.7
				c-25.7,19.8-49.4,29.9-67.6,35.6c-10.4,3.2-14.5,3.6-79.1,13.3c-46.7,7.1-58.1,8.9-73.8,16c-21.1,9.5-36.1,22.1-45.3,31.1
				L62,302.4c5.3-10.8,14.9-26.6,32-39.1c17.8-13,34.6-15.8,78.2-22.2c79.3-11.8,80.2-10.9,90.7-14.2c20.8-6.6,50.4-20.4,81.8-53.4
				L342.1,211.7z"/>
			<path style="clip-path:url(#SVGID_00000077296818201592149760000012056310204801799067_);fill:#42A3AB;" d="M344.8,173.5
				c-31.4,32.9-61,46.8-81.8,53.4c-10.4,3.3-11.4,2.5-90.7,14.2c-43.7,6.5-60.5,9.3-78.2,22.2c-17.1,12.5-26.7,28.4-32,39.1
				L28.3,250c8.2-13.7,21.7-32,43.6-45.3c22.9-14,37.9-12.3,91.6-21.3c55.5-9.4,83.8-14.4,108.5-30.2c26.8-17.2,42.3-40.5,50.7-56
				L344.8,173.5z"/>
			<path style="clip-path:url(#SVGID_00000077296818201592149760000012056310204801799067_);fill:#4CB3AC;" d="M289.7,43.7
				c-6.7,11.4-18.1,27.9-36.5,42.7c-30.1,24.2-63,31.1-98.7,38.2c-43.1,8.6-49.4,2.7-77.4,11.6c-33.9,10.7-58.4,29.8-73.8,44.5
				L28.3,250c8.2-13.7,21.7-32,43.6-45.3c22.9-14,37.9-12.3,91.6-21.3c55.5-9.4,83.8-14.4,108.5-30.2c26.8-17.2,42.3-40.5,50.7-56
				L289.7,43.7z"/>
			<path style="clip-path:url(#SVGID_00000077296818201592149760000012056310204801799067_);fill:#DEDDFF;" d="M184.3,31.8
				c12.8-4.7,26.6,0.6,40.1,5.9c3.2,1.2,28.8,11.2,27.8,18.1c-0.9,5.9-20.8,6.3-34.8,6.5c-19.5,0.4-44.7,0.9-49.7-8.2
				C164,47.2,173.1,35.9,184.3,31.8z"/>
			<path style="opacity:0.1;clip-path:url(#SVGID_00000077296818201592149760000012056310204801799067_);fill:#088395;" d="
				M84.9,336.4c125.1,15.8,221.6-81.8,217.4-170.7C298.6,86,213.5,5.3,103,10.3c0,0,234.5-40.7,232.6,158.1S119.6,353.1,84.9,336.4z
				"/>
		</g>
	</g>
</g>
</svg>
